<svg width="18" height="18" viewBox="0 0 18 18" fill="none" xmlns="http://www.w3.org/2000/svg">
<path d="M2 14.85C2.9 13.9667 3.94583 13.2708 5.1375 12.7625C6.32917 12.2542 7.61667 12 9 12C10.3833 12 11.6708 12.2542 12.8625 12.7625C14.0542 13.2708 15.1 13.9667 16 14.85V2H2V14.85ZM9 10C9.96667 10 10.7917 9.65833 11.475 8.975C12.1583 8.29167 12.5 7.46667 12.5 6.5C12.5 5.53333 12.1583 4.70833 11.475 4.025C10.7917 3.34167 9.96667 3 9 3C8.03333 3 7.20833 3.34167 6.525 4.025C5.84167 4.70833 5.5 5.53333 5.5 6.5C5.5 7.46667 5.84167 8.29167 6.525 8.975C7.20833 9.65833 8.03333 10 9 10ZM2 18C1.45 18 0.979167 17.8042 0.5875 17.4125C0.195833 17.0208 0 16.55 0 16V2C0 1.45 0.195833 0.979167 0.5875 0.5875C0.979167 0.195833 1.45 0 2 0H16C16.55 0 17.0208 0.195833 17.4125 0.5875C17.8042 0.979167 18 1.45 18 2V16C18 16.55 17.8042 17.0208 17.4125 17.4125C17.0208 17.8042 16.55 18 16 18H2ZM3.725 16H14.275C13.5417 15.35 12.7125 14.8542 11.7875 14.5125C10.8625 14.1708 9.93333 14 9 14C8.06667 14 7.12917 14.1708 6.1875 14.5125C5.24583 14.8542 4.425 15.35 3.725 16ZM9 8C8.58333 8 8.22917 7.85417 7.9375 7.5625C7.64583 7.27083 7.5 6.91667 7.5 6.5C7.5 6.08333 7.64583 5.72917 7.9375 5.4375C8.22917 5.14583 8.58333 5 9 5C9.41667 5 9.77083 5.14583 10.0625 5.4375C10.3542 5.72917 10.5 6.08333 10.5 6.5C10.5 6.91667 10.3542 7.27083 10.0625 7.5625C9.77083 7.85417 9.41667 8 9 8Z" fill="#1C1B1F"/>
</svg>
