<svg width="21" height="21" viewBox="0 0 21 21" fill="none" xmlns="http://www.w3.org/2000/svg">
<path d="M7.55029 11.2479H8.55029V9.24792H9.55029C9.83363 9.24792 10.0711 9.15209 10.2628 8.96043C10.4545 8.76876 10.5503 8.53126 10.5503 8.24792V7.24792C10.5503 6.96459 10.4545 6.72709 10.2628 6.53542C10.0711 6.34376 9.83363 6.24792 9.55029 6.24792H7.55029V11.2479ZM8.55029 8.24792V7.24792H9.55029V8.24792H8.55029ZM11.5503 11.2479H13.5503C13.8336 11.2479 14.0711 11.1521 14.2628 10.9604C14.4545 10.7688 14.5503 10.5313 14.5503 10.2479V7.24792C14.5503 6.96459 14.4545 6.72709 14.2628 6.53542C14.0711 6.34376 13.8336 6.24792 13.5503 6.24792H11.5503V11.2479ZM12.5503 10.2479V7.24792H13.5503V10.2479H12.5503ZM15.5503 11.2479H16.5503V9.24792H17.5503V8.24792H16.5503V7.24792H17.5503V6.24792H15.5503V11.2479ZM6.55029 16.7479C6.00029 16.7479 5.52946 16.5521 5.13779 16.1604C4.74613 15.7688 4.55029 15.2979 4.55029 14.7479V2.74792C4.55029 2.19792 4.74613 1.72709 5.13779 1.33542C5.52946 0.943758 6.00029 0.747925 6.55029 0.747925H18.5503C19.1003 0.747925 19.5711 0.943758 19.9628 1.33542C20.3545 1.72709 20.5503 2.19792 20.5503 2.74792V14.7479C20.5503 15.2979 20.3545 15.7688 19.9628 16.1604C19.5711 16.5521 19.1003 16.7479 18.5503 16.7479H6.55029ZM6.55029 14.7479H18.5503V2.74792H6.55029V14.7479ZM2.55029 20.7479C2.00029 20.7479 1.52946 20.5521 1.13779 20.1604C0.746126 19.7688 0.550293 19.2979 0.550293 18.7479V4.74792H2.55029V18.7479H16.5503V20.7479H2.55029Z" fill="#1C1B1F"/>
</svg>
